<?xml version="1.0" encoding="utf-8"?>
<!-- Generator: Adobe Illustrator 24.3.0, SVG Export Plug-In . SVG Version: 6.00 Build 0)  -->
<svg version="1.1" id="Camada_1" xmlns="http://www.w3.org/2000/svg" xmlns:xlink="http://www.w3.org/1999/xlink" x="0px" y="0px"
	viewBox="0 0 1920 1080" style="enable-background:new 0 0 1920 1080;" xml:space="preserve">
<style type="text/css">
	.st0{fill:#01CFE8;}
	.st1{fill:#00224E;}
</style>
<path class="st0" d="M1143.06,596.79c0.16,50.85-34.12,96.85-88.49,106.81c-61.51,11.27-115.83-27.37-128.7-84.96
	c-4.08-18.26-3.41-36.17,2.13-53.96c0.49-1.57,1.11-3.12,1.8-4.62c3.1-6.77,6.69-7.47,12.21-2.61c8.87,7.81,17.75,15.61,26.79,23.21
	c2.38,2,3.41,3.95,3.29,7.14c-0.74,19.03,3.92,36.34,16.13,51.47c20.09,24.88,58.72,29,83.43,8.54
	c15.83-13.1,24.86-29.96,25.08-50.49c0.23-21.82-9.66-39.04-26.72-52.57c-14.85-11.77-29.37-23.98-43.79-36.29
	c-7.32-6.25-13.28-13.56-13.22-24.06c0.07-13.38,13-23.38,26.01-19.91c11.37,3.03,20.23,10.45,29.3,17.38
	c12.96,9.91,25.39,20.5,37.29,31.65C1129.6,536.07,1142.92,563.5,1143.06,596.79z"/>
<path class="st1" d="M917.6,452.83c-0.55-49.04,33.34-90.86,78.15-102.26c58.51-14.88,118.44,16.43,133.6,76.38
	c4.78,18.9,4.78,37.73-1.24,56.4c-0.45,1.41-0.97,2.81-1.65,4.12c-3.33,6.43-6.48,7.32-12.04,2.73
	c-9.36-7.73-18.4-15.86-27.73-23.64c-2.29-1.91-1.75-4.15-1.71-6.36c0.27-15.51-3.13-29.96-12.72-42.42
	c-14.54-18.88-34.1-26.99-57.38-23.28c-24.13,3.85-40.03,18.67-46.63,42.14c-6.49,23.07,0.37,43.56,15.43,61.38
	c11.66,13.8,26.6,24.1,40.18,35.85c4.53,3.92,9.29,7.6,13.6,11.75c7.65,7.36,11.51,16.1,8.61,26.94
	c-3.47,12.94-19.03,20.04-30.96,13.87c-10.31-5.33-18.24-13.83-27.09-21.07c-10.3-8.43-20.45-17.07-30.36-25.95
	C931.9,516.32,918.1,487.62,917.6,452.83z"/>
</svg>
