<?xml version="1.0" encoding="utf-8"?>
<!-- Generator: Adobe Illustrator 24.3.0, SVG Export Plug-In . SVG Version: 6.00 Build 0)  -->
<svg version="1.0"
	 id="svg5" inkscape:version="1.3.2 (091e20e, 2023-11-25)" sodipodi:docname="logo-modo-escuro.svg" xmlns:cc="http://creativecommons.org/ns#" xmlns:dc="http://purl.org/dc/elements/1.1/" xmlns:inkscape="http://www.inkscape.org/namespaces/inkscape" xmlns:rdf="http://www.w3.org/1999/02/22-rdf-syntax-ns#" xmlns:sodipodi="http://sodipodi.sourceforge.net/DTD/sodipodi-0.dtd" xmlns:svg="http://www.w3.org/2000/svg"
	 xmlns="http://www.w3.org/2000/svg" xmlns:xlink="http://www.w3.org/1999/xlink" x="0px" y="0px" viewBox="0 0 650 230"
	 style="enable-background:new 0 0 650 230;" xml:space="preserve">
<style type="text/css">
	.st0{clip-path:url(#SVGID_2_);}
	.st1{clip-path:url(#SVGID_4_);fill:#01CFE8;}
	.st2{clip-path:url(#SVGID_4_);fill:#FFFFFF;}
</style>
<sodipodi:namedview  bordercolor="#000000" borderopacity="0.25" id="namedview5" inkscape:current-layer="svg5" inkscape:cx="306.43352" inkscape:cy="138.58058" inkscape:deskcolor="#d1d1d1" inkscape:pagecheckerboard="true" inkscape:pageopacity="0.0" inkscape:showpageshadow="2" inkscape:window-height="1040" inkscape:window-maximized="1" inkscape:window-width="1920" inkscape:window-x="1366" inkscape:window-y="0" inkscape:zoom="1.3493954" labelstyle="below" pagecolor="#ffffff">
	</sodipodi:namedview>
<g>
	<g>
		<defs>
			<rect id="SVGID_1_" x="-296.55" y="-213.6" width="1213.65" height="673.65"/>
		</defs>
		<clipPath id="SVGID_2_">
			<use xlink:href="#SVGID_1_"  style="overflow:visible;"/>
		</clipPath>
		<g class="st0">
			<defs>
				<rect id="SVGID_3_" x="-296.55" y="-213.6" width="1213.65" height="673.65"/>
			</defs>
			<clipPath id="SVGID_4_">
				<use xlink:href="#SVGID_3_"  style="overflow:visible;"/>
			</clipPath>
			<path class="st1" d="M172.54,158.65c0.1,31.72-21.57,60.41-55.94,66.62c-38.88,7.03-73.22-17.07-81.35-52.99
				c-2.58-11.39-2.15-22.56,1.34-33.66c0.31-0.98,0.7-1.94,1.14-2.88c1.96-4.22,4.23-4.66,7.72-1.62
				c5.6,4.87,11.22,9.73,16.93,14.48c1.5,1.25,2.16,2.46,2.08,4.45c-0.47,11.87,2.48,22.67,10.2,32.1
				c12.7,15.52,37.12,18.09,52.74,5.33c10-8.17,15.72-18.69,15.85-31.49c0.15-13.61-6.1-24.35-16.89-32.79
				c-9.39-7.34-18.57-14.96-27.68-22.63c-4.63-3.9-8.39-8.46-8.36-15.01c0.05-8.35,8.21-14.58,16.44-12.42
				c7.19,1.89,12.79,6.52,18.52,10.84c8.19,6.18,16.05,12.79,23.57,19.74C164.04,120.77,172.45,137.88,172.54,158.65"/>
			<path class="st2" d="M30.03,68.86c-0.35-30.59,21.08-56.68,49.4-63.78c36.98-9.28,74.86,10.25,84.45,47.64
				c3.02,11.79,3.02,23.53-0.79,35.18c-0.29,0.88-0.62,1.75-1.04,2.57c-2.11,4.01-4.1,4.56-7.61,1.7
				c-5.92-4.82-11.63-9.89-17.53-14.75c-1.45-1.19-1.11-2.59-1.08-3.97c0.17-9.67-1.98-18.69-8.04-26.46
				c-9.19-11.78-21.55-16.84-36.27-14.52c-15.25,2.4-25.31,11.65-29.48,26.28c-4.1,14.39,0.24,27.17,9.75,38.29
				c7.37,8.61,16.82,15.03,25.4,22.36c2.86,2.44,5.87,4.74,8.59,7.33c4.83,4.59,7.27,10.04,5.44,16.81
				c-2.19,8.07-12.03,12.5-19.57,8.65c-6.52-3.32-11.53-8.62-17.12-13.15c-6.51-5.26-12.93-10.64-19.19-16.19
				C39.07,108.46,30.35,90.55,30.03,68.86"/>
			<path class="st2" d="M280.18,90.2c-0.53,0-1.07-0.07-1.58,0.01c-4.22,0.67-6.9-0.45-8.95-4.74c-3.41-7.15-12.93-9.42-20.43-8.76
				c-3.79,0.34-7.39,1.36-10.49,3.74c-6.8,5.22-6.52,14.78,0.64,19.52c4.96,3.29,10.77,4.32,16.41,5.74
				c8.28,2.07,16.71,3.64,24.22,7.98c8.86,5.13,13.16,12.88,13.89,22.89c1.52,20.8-13,31.56-28.44,35.57
				c-15.91,4.13-31.07,1.8-43.9-9.32c-6.06-5.25-9.57-11.92-9.93-20.04c-0.12-2.6,0.63-4.12,3.61-4.24
				c4.3-0.17,8.59-0.59,12.88-0.96c1.25-0.11,1.73,0.52,1.91,1.54c2.82,15.25,22.97,19,34.55,13.37c4.84-2.36,8.05-5.86,8.39-11.44
				c0.37-5.96-2.82-9.74-7.79-12.38c-6.25-3.32-13.24-4.33-19.99-6.04c-7.2-1.82-14.5-3.41-20.49-8.1
				c-17.5-13.73-15.17-41.08,4.36-51.9c15.86-8.78,37.57-7.09,51.34,4.26c6.15,5.06,9.52,11.68,9.68,19.74
				c0.05,2.49-1.05,3.65-3.59,3.57C284.4,90.15,282.29,90.2,280.18,90.2"/>
			<path class="st2" d="M437.81,169.98c-0.54,1.72-1.91,1.95-3.48,1.93c-3.47-0.03-6.95,0-10.42-0.01c-4.66,0-4.69-0.03-5.19-4.59
				c-0.08-0.71-0.19-1.42-0.33-2.45c-4.59,4.24-9.69,7.01-15.76,7.89c-13.85,2.01-31.92-3.92-36.12-23.59
				c-0.72-3.36-0.93-6.78-0.94-10.19c-0.04-14.13-0.03-28.25-0.01-42.38c0-5.11,0.29-5.38,5.56-5.37c3.47,0,6.95,0.12,10.42,0.02
				c3.03-0.08,4.02,1.3,4.01,4.17c-0.08,13.81,0,27.63-0.05,41.44c-0.01,2.41,0.33,4.78,0.94,7.06c2.98,11.1,16.97,14.67,26.01,6.69
				c3.87-3.41,5.93-7.63,5.92-12.82c-0.02-13.81,0-27.63,0.02-41.44c0-4.62,0.96-5.53,5.76-5.54c3.26,0,6.53-0.04,9.79,0.02
				c1.54,0.03,3.2,0.03,3.87,1.89c-0.26,0.71-0.17,1.44-0.17,2.16c0,24.31,0,48.63,0,72.94
				C437.62,168.54,437.54,169.28,437.81,169.98"/>
			<path class="st2" d="M580.97,142.68c6.38-16.46,12.56-32.38,18.71-48.32c0.95-2.45,2.7-3.57,5.3-3.56
				c3.37,0.01,6.74-0.01,10.11,0.01c4.99,0.02,6.01,1.49,4.17,6.13c-7.62,19.25-15.25,38.49-22.87,57.74
				c-5.65,14.27-11.3,28.54-16.94,42.82c-1.71,4.33-2.67,4.95-7.51,4.92c-2.95-0.01-5.9,0.05-8.84-0.03
				c-3.81-0.11-5.11-1.95-3.73-5.41c3.46-8.71,6.97-17.41,10.55-26.07c0.85-2.06,0.81-3.85-0.08-5.91
				c-9.88-22.9-19.69-45.84-29.5-68.77c-1.66-3.87-0.63-5.37,3.67-5.4c3.47-0.03,6.96,0.16,10.42-0.05
				c3.49-0.22,5.49,1.32,6.75,4.35c5.02,12.08,10.1,24.14,15.15,36.21C577.82,134.93,579.27,138.54,580.97,142.68"/>
			<path class="st2" d="M333.14,146.08c2.5,6.47,5.47,8.23,13.36,7.94c7.46-0.28,7.46-0.28,7.43,7.03c-0.01,2.6-0.07,5.19-0.01,7.79
				c0.04,1.58-0.61,2.82-2.13,2.98c-11.36,1.25-22.55,1.46-31.55-7.22c-4.95-4.78-7.28-10.82-7.36-17.57
				c-0.13-11.42-0.1-22.84,0.02-34.26c0.03-2.62-0.91-3.42-3.45-3.37c-9.06,0.2-7.33-1.06-7.44-7.64c-0.04-2.39,0-4.78-0.01-7.16
				c-0.01-2.15,1.02-3.12,3.24-3.28c7.64-0.55,7.64-0.6,7.63-8.12c0-2.7-0.06-5.4-0.03-8.1c0.03-3.49,1.18-4.78,4.62-4.88
				c3.89-0.11,7.79-0.1,11.68,0c2.55,0.07,4.04,1.2,3.95,4.06c-0.14,4.56,0.07,9.14-0.08,13.7c-0.09,2.62,1,3.5,3.53,3.43
				c4.31-0.11,8.63-0.03,12.94-0.01c3.91,0.01,4.5,0.59,4.53,4.54c0.02,2.91,0.02,5.82-0.03,8.72c-0.06,3.51-1.12,4.65-4.69,4.73
				c-4.21,0.1-8.42,0.08-12.63,0.02c-1.45-0.02-2.7,0.17-3.63,1.36c-0.2,0.23-0.37,0.44-0.37,0.8c0.02,11.15,0.01,22.3,0.01,33.44
				C332.7,145.45,332.72,145.83,333.14,146.08"/>
			<path class="st2" d="M530.74,60.26c-0.61-1.73-2.18-1.38-3.45-1.41c-3.79-0.08-7.58-0.07-11.37,0c-4.29,0.07-4.75,0.51-4.76,4.69
				c-0.03,10.7,0.01,21.4-0.02,32.1c0,0.73,0.49,1.61-0.29,2.24c-11.33-9.22-23.98-11.65-37.24-5.61
				c-15.49,7.06-23.43,19.76-24.34,36.56c-0.81,14.96,4.46,27.43,16.67,36.6c14.37,10.78,31.98,10.63,44.77-2
				c0.28-0.28,0.61-1.35,1.28-0.27c0.45,1.43,0.16,2.89,0.21,4.33c0.12,3.04,1.08,4.01,4.25,4.05c3.05,0.04,6.1,0.02,9.15,0.01
				c4.38-0.01,4.92-0.54,4.92-4.79c0-34.37,0-68.73,0.01-103.1C530.54,62.52,530.34,61.37,530.74,60.26 M503.66,150.1
				c-6.87,4.86-14.32,5.73-21.92,2.01c-7.52-3.69-11.55-9.94-12.19-18.24c-0.07-0.93-0.01-1.87-0.01-2.81
				c-0.21-11.85,6.87-21.06,17.4-22.79c11.55-1.9,21.17,4.28,24.48,15.72C514.21,133.62,510.91,144.96,503.66,150.1"/>
		</g>
	</g>
</g>
</svg>
